<?xml version="1.0" encoding="UTF-8" standalone="no"?>
<svg
   xmlns:dc="http://purl.org/dc/elements/1.1/"
   xmlns:cc="http://creativecommons.org/ns#"
   xmlns:rdf="http://www.w3.org/1999/02/22-rdf-syntax-ns#"
   xmlns:svg="http://www.w3.org/2000/svg"
   xmlns="http://www.w3.org/2000/svg"
   xmlns:sodipodi="http://sodipodi.sourceforge.net/DTD/sodipodi-0.dtd"
   xmlns:inkscape="http://www.inkscape.org/namespaces/inkscape"
   width="46"
   height="42"
   viewBox="0 0 46 42"
   fill="none"
   version="1.1"
   id="svg4"
   sodipodi:docname="heart-blue.svg"
   inkscape:version="1.0.1 (3bc2e813f5, 2020-09-07)">
  <metadata
     id="metadata10">
    <rdf:RDF>
      <cc:Work
         rdf:about="">
        <dc:format>image/svg+xml</dc:format>
        <dc:type
           rdf:resource="http://purl.org/dc/dcmitype/StillImage" />
        <dc:title></dc:title>
      </cc:Work>
    </rdf:RDF>
  </metadata>
  <defs
     id="defs8" />
  <sodipodi:namedview
     pagecolor="#ffffff"
     bordercolor="#666666"
     borderopacity="1"
     objecttolerance="10"
     gridtolerance="10"
     guidetolerance="10"
     inkscape:pageopacity="0"
     inkscape:pageshadow="2"
     inkscape:window-width="1920"
     inkscape:window-height="1017"
     id="namedview6"
     showgrid="false"
     inkscape:zoom="10.119048"
     inkscape:cx="19.031497"
     inkscape:cy="22.254634"
     inkscape:window-x="-8"
     inkscape:window-y="-8"
     inkscape:window-maximized="1"
     inkscape:current-layer="svg4">
    <inkscape:grid
       type="xygrid"
       id="grid835" />
  </sodipodi:namedview>
  <path
     d="M33.7812 0.695312C31.2851 0.695312 28.9966 1.4863 26.9794 3.04634C25.0456 4.54197 23.758 6.44693 23 7.83214C22.242 6.44684 20.9544 4.54197 19.0206 3.04634C17.0034 1.4863 14.7149 0.695312 12.2188 0.695312C5.25298 0.695312 0 6.39293 0 13.9485C0 22.1112 6.55347 27.696 16.4746 36.1505C18.1593 37.5863 20.0689 39.2138 22.0538 40.9494C22.3154 41.1785 22.6514 41.3047 23 41.3047C23.3486 41.3047 23.6846 41.1785 23.9462 40.9495C25.9312 39.2136 27.8408 37.5862 29.5265 36.1496C39.4465 27.696 46 22.1112 46 13.9485C46 6.39293 40.747 0.695312 33.7812 0.695312Z"
     fill="white"
     id="path2"
     style="fill:#6ebbd3;fill-opacity:1" />
  <path
     style="fill:#6ebbd3;fill-opacity:1;stroke-width:0.0988235"
     d="M 22.471584,41.147688 C 22.232581,41.05154 11.868245,32.135996 9.8248313,30.26878 2.9133181,23.953224 0.29181142,19.705383 0.0914515,14.496987 -0.16836405,7.743032 3.7850174,2.2629346 9.8409089,0.98248653 10.971758,0.74338149 12.98693,0.70475747 14.090321,0.90103969 15.613323,1.1719667 17.250147,1.858136 18.537379,2.7652816 c 1.365859,0.9625553 3.121627,2.8940616 4.007797,4.408944 0.209828,0.3586954 0.409859,0.6521736 0.444514,0.6521736 0.03465,0 0.288882,-0.3668824 0.564949,-0.8152942 3.243175,-5.2678367 8.632979,-7.43650938 14.027004,-5.6439864 3.569397,1.1861695 6.38952,4.1267517 7.650243,7.9770187 0.525313,1.6043137 0.709036,3.0200797 0.649445,5.0046147 -0.05655,1.883401 -0.179567,2.612066 -0.711361,4.213689 -0.627239,1.88908 -1.820277,3.948949 -3.512133,6.063958 -1.035015,1.293885 -3.806303,4.127855 -5.82634,5.958122 -1.689619,1.53089 -11.743343,10.196347 -12.148109,10.470639 -0.254254,0.172297 -0.8924,0.221022 -1.211804,0.09253 z"
     id="path847" />
</svg>
